Patient4_TMGait_0pt6_01_left_01_EMG.mot
version=1
nRows=33
nColumns=33
inDegrees=no
endheader
time	1LAddLong	2LGlutMax	3LGlutMed	4LIliopsoas	5LSemiMemb	6LBicFemLong	7LRecFem	8LVastMed	9LVastLat	10LGasMed	11LTibAnt	12lTibPost	13LPeroneusLong	14LSol	15LExtDigLong	16LFlexDigLong	17RAddLong	18RGlutMax	19RGlutMed	20RIliopsoas	21RSemiMemb	22RBicFemLong	23RRecFem	24RVastMed	25RVastLat	26RGasMed	27RTibAnt	28RTibPost	29RPeroneusLong	30RSol	31RExtDigLong	32RFlexDigLong
1.17	-0.006866	0.11047	-0.03479	0.015259	0.002441	0.015564	0.059967	0.006714	0.10208	0.018616	-0.056915	0.003967	0.31082	-0.072937	-0.11917	-0.001373	0.010986	0.075226	-0.076904	-0.15366	-0.14496	-0.018005	0.20142	-0.048828	0.032043	-0.026093	-0.047913	-0.003204	0.48889	0.091705	0.001678	-0.003967
1.171	-0.003204	0.10178	-0.027466	-0.014648	-0.005798	-0.003662	0.050812	0.007629	0.11871	0.021362	0.00885	0	0.25223	-0.089569	0.00061	0	0.026398	0.11429	0.025024	-0.18768	-0.10819	-0.086365	0.26321	-0.15182	-0.046387	-0.014954	0.10574	-0.000916	0.97229	0.083923	-0.00473	0.000305
1.172	-0.001526	0.11307	-0.037842	-0.004578	-0.011597	0.01297	0.047913	0.00473	0.13733	0.010834	0.017395	0.005646	0.097351	-0.066376	0.046234	-0.005341	0.010834	0.11032	-0.06897	-0.11139	-0.071716	-0.091248	0.09613	-0.2092	-0.067444	-0.015106	0.13534	0.009766	0.95352	0.054474	-0.000916	-0.003052
1.173	-0.000458	0.10284	-0.027924	-0.012817	-0.027771	0.000763	0.027771	0.011444	0.15991	-0.010071	-0.000153	-0.001068	-0.006561	-0.053101	0.1033	0.012512	0.016785	0.16556	-0.55878	-0.1683	-0.062866	-0.036621	0.1181	-0.18677	-0.035553	0.008698	0.12054	0.001678	0.7193	-0.047302	-0.001221	-0.007477
1.174	-0.004425	0.10498	-0.032959	-0.007324	-0.002441	-0.008698	0.04776	0.001526	0.17471	-0.006714	0.02182	-0.001068	-0.17792	-0.011139	0.14725	0.001526	-0.000763	0.26032	-0.21225	-0.11734	-0.040588	0.023956	-0.1712	-0.10254	0.11337	0.009613	-0.036621	-0.002136	-0.99655	-0.11414	-0.000763	-0.005493
1.175	0.000458	0.092163	-0.027618	0.031586	0.018921	-0.009003	0.049438	0.001831	0.1889	-0.059509	0.040131	0.003357	-0.11002	-0.025024	0.074158	0.008545	-0.014801	0.27603	-0.08667	0.030823	-0.031738	0.043793	-0.41321	-0.046539	0.14984	0.000763	0.000458	-0.00473	-1.2062	0.015106	-0.001068	-0.010834
1.176	-0.01358	0.08316	-0.029297	0.023956	0.016327	0.001373	0.037537	0.00946	0.20798	-0.063171	0.069733	0.005646	-0.028381	-0.022583	0.045776	0.007935	-0.005188	0.27741	-0.2626	0.16205	-0.0354	0.020752	-0.32242	-0.004883	0.17731	-0.016479	0.074615	-0.012817	0.6456	-0.003662	0.000153	-0.007782
1.177	-0.00473	0.077057	-0.033112	0.027466	0.026703	-0.011597	0.055389	0.005341	0.22995	-0.033569	0.078278	0.001221	0.079041	-0.077515	0.026398	0.010681	-0.007019	0.25513	-0.38788	0.28061	-0.05188	-0.024414	-0.095062	0.015564	0.12573	-0.024414	0.012665	-0.022278	1.3297	-0.06073	0.005951	-0.018311
1.178	-0.006256	0.075836	-0.04837	-0.012512	0.022888	-0.014954	0.039063	0.006256	0.25574	-0.024719	-0.011902	0.005798	0.17899	-0.15808	-0.001373	0.006409	0.008087	0.27496	0.24994	0.21881	-0.042114	-0.043793	-0.09201	-0.009766	0.045471	-0.024719	-0.042725	-0.026093	0.19134	-0.19608	0	-0.020294
1.179	-0.010376	0.075989	-0.056763	0.002899	0.013885	-0.013885	0.035858	-0.002289	0.24689	-0.001831	-0.039215	0.010681	0.15121	-0.17517	0.033875	-0.003662	-0.002136	0.22156	0.42145	0.21927	-0.028076	-0.034332	-0.085754	-0.002747	-0.042114	-0.007019	-0.055542	-0.02655	-0.50003	-0.56122	-0.004272	-0.018158
1.18	-0.004883	0.079651	-0.039368	0.003815	-0.00885	-0.05127	0.0354	0.007935	0.26977	0.010681	-0.060577	0.010376	0.076294	-0.23438	-0.017395	-0.000458	0.004883	0.19119	-0.14496	0.18204	-0.048218	-0.023499	0.18845	-0.002594	-0.046997	-0.009003	-0.07431	-0.010681	0.07843	-0.51926	0.000153	-0.011292
1.181	-0.007172	0.095673	-0.033722	-0.014038	-0.024109	-0.056	0.024414	0.017548	0.2739	-0.014038	-0.052185	-0.00061	0.020142	-0.29694	0.001373	-0.008698	0.005798	0.22369	0.40024	0.090332	-0.047302	-0.021973	0.16556	-0.0177	-0.056	-0.012665	-0.2121	0.01297	0.30868	-0.13138	0.000763	-0.019226
1.182	0.003357	0.076141	-0.025024	0.006256	0.001068	-0.055695	0.017548	0.007477	0.28153	-0.033417	-0.077057	0.007019	0.068665	-0.24582	0.018005	-0.010986	-0.008087	0.28336	0.38696	0.019989	-0.036774	-0.000153	0.023956	0.032196	0.033264	-0.003204	-0.16296	0.019836	0.5011	0.3566	-0.00061	-0.014343
1.183	-0.009003	0.074615	-0.032654	0.008698	0.01709	-0.067596	0.039978	0.001221	0.2832	-0.064545	-0.016327	0.009308	0.064545	-0.25085	0.12863	-0.00412	-0.016327	0.29495	0.25803	-0.023346	-0.027313	0.040588	-0.17548	0.15976	0.14923	0.000916	0.4657	0.010681	0.61905	0.19363	0.001221	-0.009766
1.184	-0.003204	0.079803	-0.045319	0.003204	0.009155	-0.0737	0.035706	0.008087	0.28549	-0.064392	-0.024261	0.007019	0.044098	-0.20935	0.21545	0.005798	-0.014191	0.25787	0.19409	-0.056458	-0.02182	0.056915	-0.36057	0.073547	0.18997	-0.011139	0.91202	0.002747	-0.59433	-0.035858	-0.001373	-0.009003
1.185	0.007782	0.10422	-0.062408	0.013733	0.0354	-0.049744	0.043335	0.007019	0.28366	-0.065918	-0.029755	0.011597	-0.04837	-0.042114	0.001221	-0.005798	0.002899	0.2388	0.12558	-0.055084	-0.030365	0.054932	-0.34134	-0.084076	0.10834	-0.00946	0.66284	-0.003357	-0.7486	-0.10376	-0.001831	-0.000916
1.186	-0.004272	0.15411	-0.087738	-0.019531	0.001526	-0.06012	0.026855	0.009613	0.28748	-0.043793	0.041351	-0.002289	-0.008545	0.13184	0.01709	-0.010681	0.009308	0.27313	0.30716	-0.028534	-0.048676	-0.019073	-0.086975	-0.082855	-0.018005	-0.003052	-0.41351	-0.00473	-0.21316	-0.092316	-0.007019	-0.003204
1.187	-0.005341	0.15076	-0.075226	0.007019	-0.003357	-0.026245	0.037689	0.012665	0.28366	0.002594	0.043488	-0.000305	0.01236	0.20783	-0.005798	0.004425	0.018158	0.28122	-0.087891	0.069733	-0.034943	-0.020905	0.045166	0.011749	-0.068817	-0.006561	-1.0452	-0.002747	-0.21606	-0.004578	0.000153	-0.009766
1.188	0.000763	0.15335	-0.03952	-0.002899	0.006104	-0.023804	0.043182	0.005493	0.28275	0.012665	0.010071	0.001526	0.040131	0.18021	-0.02243	0.007019	0.016327	0.30975	-0.2977	0.008698	-0.009613	-0.00473	0.11292	-0.014648	-0.076904	-0.024872	0.0354	-0.006256	-0.4451	0.008545	0	-0.003815
1.189	-0.001678	0.14679	-0.009155	0.015259	0.002289	-0.046234	0.029907	0.010529	0.28748	0.001373	0.014038	0	0.052795	0.12848	-0.054626	0.007629	0.010986	0.37491	-0.18127	-0.082397	-0.014648	-0.054932	0.11475	-0.10727	-0.12375	-0.002289	0.11139	-0.003052	0.057526	-0.06073	0.001221	-0.003357
1.19	0.004578	0.12863	-0.008087	0.003204	0.017548	-0.055695	0.037994	0.001984	0.27206	-0.036469	0.023041	0.005035	0.10452	0.083923	-0.076294	0.010834	-0.000916	0.39749	-0.19501	-0.17303	-0.023346	-0.087585	0.1358	-0.15533	-0.10178	0.005798	-0.5249	-0.007324	0.51544	-0.23636	-0.000458	0.000458
1.191	-0.002899	0.11551	-0.062866	0.005188	0.015259	-0.054626	0.03479	0.008392	0.27161	-0.037842	0.01358	-0.000305	0.13016	0.021057	-0.11383	0.013885	0.005188	0.36636	-0.22476	-0.16937	0.005798	-0.031433	0.079651	-0.21881	-0.044861	-0.000763	-0.31662	-0.009308	0.050964	-0.19745	-0.000458	-0.009613
1.192	-0.003662	0.14496	-0.027313	-0.008392	0.014496	-0.02243	0.028381	0.00351	0.25406	-0.021362	0.012054	0.001526	0.04303	0.00061	-0.078583	0.003052	-0.002136	0.42465	0.21759	-0.11322	0.026703	-0.031738	-0.010529	-0.16571	0.032806	0.00946	0.55618	-0.006409	-0.005646	-0.13107	-0.007019	-0.014801
1.193	-0.001526	0.14938	-0.005035	-0.008545	0.000458	-0.028839	0.042419	0.009308	0.24536	-0.028992	-0.017853	0.000763	-0.042572	0.022125	-0.040741	0.010834	-0.016022	0.42023	0.3305	0.088043	0.002441	-0.055695	-0.32837	-0.17761	0.025024	0.001068	0.36835	-0.006866	-0.09079	-0.055237	0.001831	-0.014343
1.194	-0.010834	0.14877	-0.019684	0.01236	-0.056305	-0.063782	0.033264	0.010529	0.24414	-0.052338	0.003204	-0.00351	0.22842	0.053253	0.010223	0.024109	-0.001831	0.41763	-0.14252	0.18066	-0.007629	-0.053711	-0.41779	-0.15793	0.18936	-0.008392	0.33829	-0.003204	-0.063629	0.071259	-0.001068	-0.010834
1.195	-0.006561	0.1532	-0.003357	0.017548	-0.031586	-0.094452	0.046082	0.006409	0.23148	-0.06012	0.018768	0.009003	0.29648	0.037384	-0.021057	0.003967	-0.017395	0.37811	-0.25055	0.20721	0.001678	-0.044098	-0.3122	0.003357	0.25772	-0.007629	0.85434	-0.006256	-0.36179	0.054016	-0.003815	-0.010071
1.196	-0.004272	0.14069	-0.011902	0.074158	0.013275	-0.12054	0.0383	0.004883	0.23453	-0.034943	0.001831	0.001373	0.11444	-0.017395	-0.004578	0.007782	0.015869	0.38773	-0.38879	0.14252	-0.021362	-0.069275	-0.007019	0.038605	0.13046	-0.014191	1.1058	-0.000458	-0.50629	0.18478	0.001831	-0.014648
1.197	0.007629	0.1506	0.018768	0.022888	0.055847	-0.11551	0.025635	0.001526	0.23285	-0.033112	-0.031738	-0.002136	-0.088348	-0.008392	0.019073	0.009766	0.000916	0.38193	-0.22934	0.12634	-0.015564	-0.053101	-0.28107	0.16724	0.27008	-0.01297	0.30121	-0.010376	-0.45273	0.25925	-0.002747	-0.016327
1.198	0.001984	0.16144	0.004425	0.024719	0.041351	-0.072632	0.03479	0.002747	0.2327	-0.035095	-0.008545	0.002441	0.027618	-0.018005	0.065002	0.00824	0.00885	0.42206	0.050812	0.088654	-0.023499	-0.085449	-0.24872	0.13229	0.13123	-0.004883	-0.31845	-0.003662	-2.025	0.14923	0.000305	-0.011139
1.199	-0.004272	0.18295	-0.009308	0.032959	0.005646	-0.044861	0.034485	0.005341	0.21942	-0.031891	-0.021057	0.002441	0.08667	-0.052948	0.005341	0.013428	0.027466	0.43747	0.27268	0.072784	-0.031128	-0.077362	0.046844	0.056	-0.046692	-0.002747	-0.66971	-0.003967	0.37979	0.1442	-0.000305	-0.008698
1.2	-0.007629	0.19012	-0.011902	0.007019	-0.005188	-0.019531	0.030518	0.006866	0.22217	-0.016785	-0.006561	-0.000153	0.12985	-0.056152	-0.005646	0.007935	0.033722	0.39963	0.60898	0.029602	-0.040894	-0.074005	0.24262	-0.097198	-0.15259	-0.007782	-0.82428	-0.005341	1.846	0.23819	0.004883	-0.013885
1.201	-0.007324	0.20889	-0.007019	-0.001831	-0.003052	-0.045319	0.042877	0.003357	0.21515	-0.017548	-0.002441	0.013885	0.068054	-0.064545	0.010681	0.012817	0.020905	0.31082	-0.027313	0.022583	-0.036926	-0.059967	0.19119	-0.19058	-0.14816	-0.006866	-0.5896	-0.005035	2.1068	0.16785	0.000458	-0.003357
1.202	-0.015564	0.25238	-0.019836	0.007782	0.010223	-0.057983	0.025787	0.015717	0.20813	-0.005798	0.001068	-0.003662	0.077515	-0.098267	0.015106	0.004578	0.016022	0.37964	-0.054321	-0.055542	-0.032959	-0.058136	0.24811	-0.11993	0.15701	0.011597	-0.15106	-0.000763	1.601	-0.029907	-0.000916	0.004425
